<?xml version="1.0" standalone="no"?>
<!DOCTYPE svg PUBLIC "-//W3C//DTD SVG 20010904//EN"
 "http://www.w3.org/TR/2001/REC-SVG-20010904/DTD/svg10.dtd">
<svg version="1.0" xmlns="http://www.w3.org/2000/svg"
 width="605.000000pt" height="605.000000pt" viewBox="0 0 605.000000 605.000000"
 preserveAspectRatio="xMidYMid meet">
<metadata>
Created by potrace 1.14, written by Peter Selinger 2001-2017
</metadata>
<g transform="translate(0.000000,605.000000) scale(0.100000,-0.100000)"
fill="#000000" stroke="none">
<path d="M3288 5818 c-22 -22 -22 -28 -4 -28 7 0 16 10 19 22 8 28 6 29 -15 6z"/>
<path d="M3123 5778 c-13 -6 -23 -14 -23 -18 0 -4 -20 -13 -45 -20 -25 -7 -45
-17 -45 -23 0 -6 -3 -8 -6 -4 -3 3 -29 -4 -58 -17 -28 -12 -57 -21 -65 -18 -9
3 -11 0 -6 -8 5 -8 0 -11 -16 -9 -13 1 -37 -3 -54 -10 -16 -7 -39 -13 -50 -14
-11 0 -26 -5 -32 -10 -9 -6 -13 -5 -13 2 0 7 -5 9 -10 6 -22 -14 -63 -15 -78
-3 -12 10 -14 10 -8 1 7 -13 -4 -15 -101 -16 -24 0 -43 -5 -43 -11 0 -6 -4 -6
-12 2 -7 7 -17 8 -29 1 -10 -5 -31 -9 -46 -8 -15 1 -37 -2 -47 -6 -15 -7 -17
-5 -11 6 5 8 -3 4 -17 -9 -18 -16 -28 -20 -33 -12 -5 8 -14 6 -32 -5 -17 -12
-23 -13 -17 -4 6 11 5 12 -7 2 -8 -6 -25 -13 -39 -15 -14 -1 -30 -12 -37 -23
-9 -15 -12 -16 -13 -5 0 11 -6 8 -20 -9 -11 -13 -20 -18 -20 -12 0 7 -5 9 -10
6 -6 -4 -8 -11 -5 -16 3 -5 -1 -6 -9 -3 -9 3 -16 1 -16 -6 0 -6 -4 -8 -10 -5
-5 3 -10 1 -10 -5 0 -6 -12 -16 -27 -23 -16 -6 -30 -14 -33 -17 -3 -3 -26 -19
-52 -35 -27 -17 -48 -36 -48 -44 0 -8 -3 -11 -7 -8 -3 4 -11 -1 -18 -10 -13
-18 -61 -30 -50 -13 3 5 -3 10 -15 10 -17 0 -20 4 -15 20 4 12 2 20 -5 20 -6
0 -8 -4 -5 -10 4 -6 -5 -10 -19 -10 -14 0 -26 4 -26 9 0 6 -9 8 -20 6 -11 -2
-20 2 -20 8 0 9 -2 9 -8 0 -5 -7 -13 -9 -21 -3 -8 4 -20 6 -28 3 -7 -3 -21 1
-30 8 -9 8 -14 9 -10 3 4 -7 -3 -14 -18 -17 -14 -2 -28 0 -31 5 -3 5 -14 2
-24 -7 -9 -8 -34 -16 -54 -17 -22 -1 -41 -8 -46 -17 -8 -14 -9 -14 -10 2 0 9
-4 17 -10 17 -5 0 -7 -7 -4 -15 5 -11 2 -14 -12 -9 -11 4 -16 3 -11 -1 7 -8
-70 -51 -85 -47 -5 1 -8 -3 -8 -9 0 -5 -4 -7 -10 -4 -5 3 -10 1 -10 -6 0 -6
-8 -9 -20 -6 -11 3 -18 2 -15 -3 5 -8 -24 -25 -38 -21 -4 0 -17 -8 -29 -19
-17 -15 -24 -17 -30 -8 -5 9 -8 8 -8 -4 0 -11 -5 -15 -14 -12 -8 3 -17 1 -21
-5 -3 -6 -15 -11 -26 -11 -10 0 -19 -5 -19 -11 0 -5 -4 -8 -9 -4 -5 3 -12 1
-15 -3 -3 -5 5 -8 17 -8 12 1 28 -3 36 -8 11 -8 13 -8 7 2 -4 6 -3 12 3 12 5
0 12 -6 14 -12 4 -9 6 -7 6 3 1 10 9 15 23 14 13 -1 25 2 28 6 3 5 17 10 30
11 14 2 28 9 31 17 6 17 47 22 56 8 3 -5 9 -3 14 4 7 11 9 10 9 -3 0 -9 -4
-20 -10 -23 -5 -3 -10 -12 -9 -18 0 -9 2 -9 6 1 2 6 11 12 18 12 7 0 16 -6 18
-12 3 -7 6 -2 6 11 1 24 1 24 16 5 15 -19 15 -19 8 1 -6 18 -5 19 12 5 10 -8
16 -10 13 -5 -4 6 2 17 14 24 11 7 17 8 13 2 -3 -6 -1 -11 4 -11 6 0 11 5 11
11 0 5 5 7 10 4 6 -3 10 -1 10 4 0 6 5 11 11 11 5 0 7 -4 4 -10 -8 -13 37 -8
48 5 5 6 7 3 3 -7 -3 -10 -1 -18 4 -18 8 0 8 -10 1 -49 -1 -2 -8 2 -16 9 -13
11 -14 10 -9 -5 5 -13 4 -16 -4 -11 -7 4 -12 3 -12 -3 0 -6 -7 -8 -15 -5 -8 4
-15 1 -15 -6 0 -6 -4 -8 -10 -5 -5 3 -10 2 -10 -4 0 -10 -38 -27 -52 -23 -5 1
-8 -2 -8 -8 0 -5 -6 -10 -12 -10 -7 0 -31 -14 -52 -30 -21 -16 -43 -27 -49
-23 -6 3 -8 2 -5 -3 3 -5 -4 -18 -15 -29 -11 -11 -16 -14 -12 -6 5 9 4 12 -3
7 -7 -4 -12 -14 -12 -22 0 -12 -11 -18 -31 -16 -4 1 -4 -8 -1 -20 3 -12 1 -19
-4 -15 -6 3 -18 -9 -28 -28 -10 -19 -25 -36 -33 -39 -8 -3 -11 -10 -8 -16 3
-5 1 -10 -4 -10 -6 0 -10 -6 -9 -12 2 -7 -3 -12 -10 -10 -8 1 -11 -1 -9 -5 3
-5 0 -22 -7 -38 -7 -17 -13 -34 -14 -39 0 -5 -7 -13 -15 -18 -9 -5 -13 -16
-10 -28 3 -12 0 -20 -8 -20 -7 0 -10 -3 -7 -6 4 -3 2 -19 -2 -35 -7 -23 -5
-31 6 -36 7 -3 14 -9 14 -15 0 -5 -5 -6 -11 -2 -8 4 -8 1 -2 -12 8 -16 10 -78
3 -86 -1 -2 -3 -11 -6 -20 -4 -19 -5 -24 -19 -71 -11 -40 0 -43 33 -9 50 51
79 47 78 -10 -1 -34 2 -43 16 -42 25 2 18 -46 -12 -77 -14 -14 -41 -45 -60
-68 -19 -24 -42 -51 -50 -61 -8 -10 -28 -34 -45 -55 -16 -20 -36 -43 -43 -50
-6 -8 -12 -18 -12 -24 0 -6 -8 -11 -17 -11 -15 0 -16 -2 -3 -10 10 -6 11 -10
3 -10 -7 0 -13 -7 -13 -16 0 -8 -4 -13 -9 -10 -8 5 -25 -29 -22 -46 1 -5 -3
-8 -9 -8 -5 0 -10 -9 -10 -19 0 -11 -5 -21 -11 -23 -5 -2 -12 -12 -14 -23 -2
-11 -4 -21 -5 -22 -2 -2 -3 -6 -5 -10 -1 -5 -8 -21 -15 -38 -7 -16 -12 -36
-11 -42 1 -7 -3 -13 -10 -13 -8 0 -8 -4 1 -15 7 -8 8 -15 3 -15 -10 0 -9 -57
1 -68 4 -3 11 -1 18 6 18 18 51 -4 38 -27 -5 -10 -7 -20 -5 -23 2 -2 -9 -19
-25 -37 -27 -29 -33 -60 -9 -46 5 4 10 1 10 -4 1 -6 2 -17 3 -23 2 -16 -18
-38 -34 -38 -6 0 -9 -4 -6 -8 3 -5 -6 -15 -19 -22 -13 -7 -22 -17 -19 -22 3
-5 2 -8 -3 -7 -13 3 -43 -13 -38 -20 5 -9 -26 -8 -42 2 -17 11 -22 -26 -8 -67
11 -30 11 -35 0 -26 -9 8 -15 8 -20 0 -4 -6 -3 -9 2 -8 13 4 73 -35 73 -49 0
-13 -39 -39 -52 -35 -12 3 -9 -8 6 -23 7 -8 16 -11 20 -8 3 4 6 -1 6 -11 0 -9
4 -15 9 -11 6 3 9 -4 8 -15 -1 -11 -5 -20 -10 -20 -5 0 -6 -26 -3 -57 7 -80 8
-81 24 -88 11 -4 12 -8 2 -20 -7 -8 -9 -15 -4 -15 5 0 3 -4 -5 -9 -8 -6 -24
-6 -38 0 -12 5 -23 5 -23 1 0 -4 -13 -9 -30 -10 -52 -4 -158 -69 -227 -139
-63 -66 -85 -119 -82 -201 2 -37 8 -80 15 -97 20 -54 25 -70 22 -70 -2 0 7
-14 20 -32 12 -17 22 -34 22 -37 0 -9 66 -103 128 -181 31 -38 115 -131 188
-205 73 -74 141 -145 151 -157 10 -12 26 -31 35 -42 10 -12 18 -26 18 -31 0
-6 5 -10 10 -10 6 0 10 -5 10 -11 0 -15 90 -97 110 -100 47 -6 98 -2 155 14
66 17 122 23 132 13 3 -2 5 -10 7 -18 1 -7 5 -18 8 -24 4 -6 9 -23 12 -39 3
-16 11 -32 18 -37 7 -4 10 -8 6 -8 -4 0 6 -26 22 -59 17 -32 30 -62 30 -65 0
-15 81 -124 125 -169 78 -79 276 -201 408 -252 26 -10 47 -22 47 -28 0 -6 3
-8 6 -4 11 11 117 -70 186 -141 59 -62 144 -132 391 -325 56 -44 168 -105 207
-112 8 -2 15 -4 15 -5 0 -3 43 -11 125 -25 43 -7 273 -7 325 1 28 4 57 7 65 6
81 -2 292 97 382 179 48 44 68 59 78 59 5 0 13 6 17 13 7 11 96 70 223 145 19
12 65 36 103 53 37 18 67 36 67 41 0 4 7 8 16 8 9 0 28 8 42 18 15 10 41 24
57 32 17 8 32 17 35 20 3 3 17 11 32 19 15 8 37 22 47 33 11 10 23 18 26 18 9
0 95 69 118 94 9 10 17 15 17 11 0 -5 11 6 25 25 14 19 29 36 34 39 16 11 153
222 161 249 4 16 13 25 21 23 8 -2 49 -5 92 -6 96 -3 150 19 262 108 5 4 30
26 55 48 25 22 57 47 73 55 15 8 27 19 27 25 0 6 5 7 10 4 6 -3 10 -1 10 4 0
6 4 11 9 11 26 0 163 92 213 142 70 71 112 128 205 278 92 149 123 223 123
295 0 104 -70 227 -167 294 -18 12 -33 20 -33 17 0 -3 -11 -1 -24 4 -13 5 -43
12 -67 15 -24 4 -47 9 -51 11 -5 3 -8 0 -8 -7 0 -10 -3 -10 -11 -2 -6 6 -17 9
-24 7 -18 -7 -30 17 -14 27 8 4 15 13 15 19 3 21 4 22 17 12 8 -7 18 -7 27 -2
13 8 13 10 1 10 -31 0 6 21 42 23 20 2 40 7 44 11 5 4 1 7 -7 6 -8 -1 -26 -2
-40 -1 -18 1 -21 4 -11 10 10 6 10 10 1 16 -18 11 7 24 37 19 15 -3 22 -1 18
6 -3 5 -16 10 -29 10 -13 0 -37 7 -54 16 -38 18 -54 39 -24 30 23 -8 50 -14
105 -26 50 -10 48 6 -3 20 -22 6 -40 15 -40 19 0 5 -9 11 -20 14 -12 3 -20 14
-20 27 0 19 1 20 16 6 14 -15 22 -17 64 -21 8 0 22 -5 30 -9 12 -7 13 -6 3 4
-7 8 -23 15 -35 17 -12 2 -30 11 -39 21 -36 35 -50 43 -61 36 -7 -4 -8 -3 -4
5 4 6 -6 24 -23 42 -20 19 -31 41 -31 58 0 15 -6 33 -12 40 -11 11 -10 14 0
18 6 3 9 10 6 15 -4 7 -2 8 4 4 6 -3 9 -16 7 -28 -3 -11 -2 -18 2 -14 3 3 13
0 22 -7 14 -11 15 -10 1 7 -14 18 -13 19 5 13 20 -7 20 -7 1 8 -20 15 -20 15
0 29 18 14 18 15 1 22 -10 3 -17 14 -15 23 1 9 -1 22 -6 30 -6 9 -4 18 7 26
14 10 14 13 -4 25 -23 17 -25 35 -3 26 14 -5 15 -4 4 9 -14 17 0 21 17 4 7 -7
10 -3 8 15 -4 32 -14 48 -26 41 -5 -4 -9 -1 -9 5 0 7 7 9 16 6 12 -4 15 -2 10
9 -3 10 1 15 12 15 15 0 15 2 2 10 -8 5 -11 10 -6 10 5 0 2 8 -5 18 -7 9 -9
14 -5 10 5 -4 15 -3 23 3 9 9 13 8 13 0 0 -6 -5 -11 -11 -11 -5 0 -7 -4 -4
-10 10 -16 25 -12 25 6 0 14 2 15 18 3 16 -13 16 -12 1 6 -14 18 -15 26 -10
53 1 4 6 0 12 -8 9 -13 10 -13 6 0 -2 8 -11 14 -20 14 -9 -1 -15 2 -12 6 3 5
2 10 -2 13 -5 2 -3 2 4 1 7 -2 15 2 19 8 4 6 3 8 -3 5 -10 -6 -41 70 -35 87 2
5 -4 6 -13 2 -13 -5 -14 -2 -4 17 11 20 11 21 -4 8 -20 -16 -23 -1 -4 18 10
11 10 13 0 7 -15 -8 -17 6 -4 20 6 5 4 16 -5 28 -8 11 -14 15 -14 10 0 -6 6
-16 13 -24 10 -12 9 -12 -4 -2 -17 13 -20 57 -6 80 5 7 4 12 -2 12 -6 0 -11 5
-11 11 0 5 4 8 8 5 4 -2 8 4 8 15 0 10 -3 19 -7 19 -3 0 -5 11 -4 25 2 14 0
25 -4 25 -4 0 -8 8 -9 18 -7 47 -6 61 2 61 5 -1 13 5 18 13 8 10 9 10 5 -2 -3
-10 2 -16 14 -17 26 -2 24 11 -6 41 -14 14 -25 28 -25 32 0 7 -48 60 -92 102
-16 14 -28 34 -28 44 0 10 -4 18 -9 18 -8 0 -18 26 -26 66 -2 6 8 10 23 8 15
-1 33 3 41 9 12 10 13 9 7 -3 -6 -12 -4 -11 6 1 7 9 19 18 27 20 9 3 -1 12
-25 23 -122 56 -120 55 -179 104 -5 5 -23 25 -40 46 -16 20 -36 43 -42 51 -7
7 -10 22 -6 32 6 16 5 17 -12 3 -11 -9 -16 -10 -11 -2 4 7 2 12 -6 12 -9 0 -9
3 2 10 13 8 12 10 -4 10 -12 0 -16 5 -12 16 3 8 2 12 -4 9 -6 -3 -10 1 -10 10
0 10 -5 13 -12 9 -7 -4 -8 -3 -4 4 4 7 2 12 -5 12 -9 0 -9 3 0 14 9 11 9 16 0
22 -8 4 -9 3 -5 -4 4 -7 2 -12 -5 -12 -7 0 -9 8 -6 21 5 17 3 18 -9 8 -8 -7
-14 -8 -13 -3 1 5 1 16 0 24 -1 13 -2 13 -11 0 -5 -8 -10 -10 -10 -5 0 6 6 17
13 24 10 11 9 12 -2 6 -11 -6 -13 -4 -7 10 5 14 4 16 -7 7 -14 -12 -15 -11
-19 37 -1 11 -6 17 -10 15 -4 -3 -8 0 -8 6 0 6 -4 8 -10 5 -5 -3 -10 -1 -10 5
0 6 -5 8 -12 4 -8 -5 -7 0 2 11 8 10 10 16 3 12 -7 -4 -14 1 -18 13 -4 11 -10
18 -15 15 -5 -3 -12 0 -16 6 -4 8 -3 9 4 5 17 -10 15 1 -5 23 -9 11 -21 17
-26 14 -6 -3 -7 -1 -3 5 4 7 2 12 -3 12 -6 0 -11 6 -11 14 0 8 -9 18 -20 21
-11 3 -20 12 -20 20 0 8 -9 17 -20 20 -11 3 -20 13 -20 21 0 8 -4 14 -8 14 -8
0 -43 25 -72 51 -9 9 -31 22 -48 30 -17 7 -28 17 -25 22 3 5 0 7 -8 5 -8 -3
-19 1 -24 9 -6 8 -20 15 -32 16 -12 0 -20 4 -17 9 2 4 -12 10 -32 14 -19 3
-38 13 -41 20 -3 8 -9 14 -15 14 -5 0 -6 -5 -3 -11 4 -6 -2 -5 -13 2 -12 7
-19 16 -17 19 2 4 -2 7 -10 7 -8 0 -11 -5 -8 -11 3 -6 0 -5 -8 2 -7 6 -23 12
-36 12 -13 0 -23 5 -23 11 0 6 -9 9 -20 6 -14 -4 -20 0 -20 11 0 15 -2 15 -10
2 -9 -13 -10 -13 -11 0 -1 8 -1 18 0 22 1 8 -26 4 -35 -5 -10 -10 -26 -9 -20
2 3 5 -3 11 -15 14 -17 5 -18 8 -9 24 7 10 28 26 49 35 l36 16 -42 -1 c-24 0
-43 -3 -43 -7 0 -4 -18 -12 -40 -18 -37 -9 -40 -8 -28 6 12 13 10 14 -9 3 -22
-11 -23 -10 -23 19 0 16 5 30 11 30 5 0 7 6 3 13 -5 7 0 6 11 -3 10 -8 16 -10
12 -4 -7 11 41 39 51 29 3 -2 10 0 17 5 6 5 25 10 42 12 34 2 35 18 2 18 -13
0 -18 4 -13 12 5 7 3 8 -7 2 -16 -10 -59 -14 -59 -5 0 6 -89 7 -100 2 -3 -2
-27 -4 -55 -6 -69 -4 -67 -4 -59 -17 6 -10 4 -10 -8 0 -12 10 -18 10 -23 1 -6
-8 -10 -7 -16 2 -7 12 -9 12 -9 0 0 -9 -8 -12 -25 -9 -15 3 -22 1 -18 -5 4 -7
-1 -8 -13 -3 -10 5 -25 9 -31 9 -7 0 -13 4 -13 9 0 4 -8 8 -17 8 -17 1 -17 1
0 11 18 10 18 11 1 24 -12 8 -26 10 -41 4 -16 -6 -27 -4 -40 9 -15 15 -16 16
-11 0 4 -10 1 -19 -8 -22 -10 -4 -13 -2 -8 7 6 8 3 8 -9 -1 -9 -8 -21 -11 -27
-7 -5 3 -10 2 -10 -4 0 -5 -8 -8 -17 -6 -10 2 -21 4 -25 4 -3 1 -4 11 -1 24 3
12 1 18 -4 12 -10 -14 -85 -36 -77 -24 3 5 -2 9 -10 9 -9 0 -16 5 -16 11 0 7
-8 9 -20 5 -11 -3 -28 -9 -39 -12 -13 -4 -20 0 -24 16 -5 19 -8 20 -27 10 -16
-9 -25 -9 -33 -1 -8 8 -8 11 2 11 7 0 9 5 6 10 -3 6 1 10 9 10 9 0 16 5 16 10
0 6 7 10 15 10 8 0 15 4 15 9 0 5 2 16 5 23 4 9 -2 14 -14 14 -11 0 -18 -4
-15 -7 2 -4 0 -10 -6 -14 -5 -3 -10 0 -10 7 0 10 -2 10 -9 -1 -5 -8 -11 -9
-15 -3 -3 6 1 17 10 26 8 9 16 26 16 38 1 13 5 28 10 34 15 21 -22 24 -41 5
-11 -11 -17 -22 -14 -24 3 -3 -2 -4 -11 -3 -8 1 -19 5 -22 9 -10 10 -26 9 -20
-1 2 -4 -6 -9 -20 -10 -24 -2 -24 -1 -8 23 18 27 12 30 -23 13z m-948 -238
c-3 -5 -12 -10 -18 -10 -7 0 -6 4 3 10 19 12 23 12 15 0z m2715 -730 c0 -5 -2
-10 -4 -10 -3 0 -8 5 -11 10 -3 6 -1 10 4 10 6 0 11 -4 11 -10z m581 -1242 c5
-9 5 -19 1 -22 -5 -3 -9 0 -10 7 0 7 -3 23 -6 37 -4 14 -3 18 0 10 4 -8 11
-23 15 -32z m-26 -236 c-3 -3 -11 0 -18 7 -9 10 -8 11 6 5 10 -3 15 -9 12 -12z
m-7 -172 c15 0 15 -2 2 -10 -15 -9 -30 4 -29 25 0 6 3 4 6 -2 2 -7 12 -13 21
-13z m-5 -166 c-7 -3 -9 -13 -6 -22 4 -14 3 -14 -5 -2 -12 16 -7 30 11 29 9 0
9 -2 0 -5z"/>
<path d="M2785 5670 c-3 -6 1 -7 9 -4 18 7 21 14 7 14 -6 0 -13 -4 -16 -10z"/>
<path d="M4290 5309 c0 -5 5 -7 10 -4 6 3 10 8 10 11 0 2 -4 4 -10 4 -5 0 -10
-5 -10 -11z"/>
<path d="M1225 5199 c-4 -6 -5 -12 -2 -15 2 -3 7 2 10 11 7 17 1 20 -8 4z"/>
<path d="M1450 5192 c0 -5 7 -9 15 -9 8 0 12 4 9 9 -3 4 -9 8 -15 8 -5 0 -9
-4 -9 -8z"/>
<path d="M1036 4363 c-6 -14 -5 -15 5 -6 7 7 10 15 7 18 -3 3 -9 -2 -12 -12z"/>
<path d="M5428 3953 c7 -3 16 -2 19 1 4 3 -2 6 -13 5 -11 0 -14 -3 -6 -6z"/>
<path d="M5420 3771 c0 -6 4 -13 10 -16 6 -3 7 1 4 9 -7 18 -14 21 -14 7z"/>
<path d="M693 3451 c-1 -14 3 -18 13 -14 11 4 12 9 3 19 -15 18 -14 18 -16 -5z"/>
<path d="M675 3391 c-3 -5 -2 -12 3 -15 5 -3 9 1 9 9 0 17 -3 19 -12 6z"/>
<path d="M5435 3230 c3 -5 8 -10 11 -10 2 0 4 5 4 10 0 6 -5 10 -11 10 -5 0
-7 -4 -4 -10z"/>
<path d="M5420 3056 c0 -2 7 -7 16 -10 8 -3 12 -2 9 4 -6 10 -25 14 -25 6z"/>
<path d="M5620 2820 c0 -5 5 -10 11 -10 5 0 7 5 4 10 -3 6 -8 10 -11 10 -2 0
-4 -4 -4 -10z"/>
</g>
</svg>
